<svg width="179" height="179" viewBox="0 0 179 179" fill="none" xmlns="http://www.w3.org/2000/svg">
<path fill-rule="evenodd" clip-rule="evenodd" d="M89.7893 0C121.659 0 151.111 16.9788 167.048 44.5405C182.984 72.1021 182.984 106.06 167.048 133.621C159.826 146.111 149.674 156.662 137.466 164.372L123.166 141.786C142.02 129.88 153.082 108.83 152.186 86.5688C151.289 64.3075 138.564 44.2198 118.809 33.8686C109.857 29.1785 99.9009 26.7243 89.7893 26.7243V0Z" fill="#23B3E8"/>
<path fill-rule="evenodd" clip-rule="evenodd" d="M137.467 164.372C125.259 172.082 111.36 176.71 96.9663 177.872L94.8164 151.237C104.892 150.427 114.621 147.18 123.167 141.786L137.467 164.372Z" fill="#03293D"/>
<path fill-rule="evenodd" clip-rule="evenodd" d="M96.9664 177.872C65.1996 180.433 34.4765 165.873 16.3718 139.683C6.78198 125.813 1.33139 109.507 0.653412 92.6664L27.3934 91.5929C28.2899 113.854 41.0154 133.942 60.7704 144.293C71.2345 149.776 83.0411 152.186 94.8165 151.237L96.9664 177.872Z" fill="#F15832"/>
<path fill-rule="evenodd" clip-rule="evenodd" d="M0.652734 92.6665C0.26468 83.0858 1.4333 73.5096 4.10507 64.2986L29.8103 71.7324C27.9414 78.1775 27.1206 84.8852 27.3927 91.593L0.652734 92.6665Z" fill="#826AF9"/>
<path fill-rule="evenodd" clip-rule="evenodd" d="M4.10461 64.2986C12.9719 33.7305 37.495 10.2042 68.4412 2.5878C75.4261 0.868539 82.594 0 89.7886 0V26.7243C67.4777 26.7243 46.8663 38.6077 35.7109 57.9026C33.1908 62.2587 31.2104 66.8998 29.8098 71.7324L4.10461 64.2986Z" fill="#4DBD98"/>
<path d="M74.4844 78.336H76.9324V80H69.9724V78.336H72.4204V71.072L70.4844 72.24L69.6684 70.736L73.0124 68.72H74.4844V78.336ZM78.6222 68.72H86.4782V70.256L81.3582 80H79.1662L84.2702 70.384H78.6222V68.72ZM97.2637 71.984C98.2024 71.984 98.901 72.2507 99.3597 72.784C99.8184 73.3173 100.048 74.1227 100.048 75.2V80H98.0477V75.312C98.0477 74.704 97.9304 74.2613 97.6957 73.984C97.4717 73.7067 97.1144 73.568 96.6237 73.568C96.0477 73.568 95.5837 73.7493 95.2317 74.112C94.8904 74.4747 94.7197 74.96 94.7197 75.568V80H92.7197V68.72H94.7197V73.264C94.9864 72.848 95.3384 72.5333 95.7757 72.32C96.2237 72.096 96.7197 71.984 97.2637 71.984ZM107.231 73.648L106.063 73.76C104.74 73.8987 104.079 74.5707 104.079 75.776V80H102.079V72.176H103.983V73.552C104.388 72.6133 105.226 72.1013 106.495 72.016L107.103 71.968L107.231 73.648ZM111.006 80.128C110.313 80.128 109.673 80.0427 109.086 79.872C108.51 79.7013 108.019 79.456 107.614 79.136L108.174 77.744C109.006 78.352 109.961 78.656 111.038 78.656C111.497 78.656 111.843 78.5813 112.078 78.432C112.323 78.2827 112.446 78.0693 112.446 77.792C112.446 77.5573 112.361 77.376 112.19 77.248C112.03 77.12 111.737 77.0027 111.31 76.896L110.03 76.608C109.305 76.448 108.766 76.1867 108.414 75.824C108.062 75.4613 107.886 74.992 107.886 74.416C107.886 73.936 108.019 73.5147 108.286 73.152C108.563 72.7787 108.942 72.4907 109.422 72.288C109.913 72.0853 110.478 71.984 111.118 71.984C111.673 71.984 112.206 72.0693 112.718 72.24C113.241 72.4107 113.699 72.6507 114.094 72.96L113.534 74.32C112.723 73.7333 111.913 73.44 111.102 73.44C110.665 73.44 110.323 73.52 110.078 73.68C109.833 73.84 109.71 74.064 109.71 74.352C109.71 74.5653 109.785 74.7413 109.934 74.88C110.094 75.0187 110.345 75.1253 110.686 75.2L112.014 75.504C112.793 75.6747 113.363 75.9467 113.726 76.32C114.089 76.6827 114.27 77.1627 114.27 77.76C114.27 78.4853 113.977 79.0613 113.39 79.488C112.803 79.9147 112.009 80.128 111.006 80.128Z" fill="#03293D"/>
<path d="M56.1975 97L55.4175 95.19H51.7375L50.9575 97H50.1175L53.2175 89.95H53.9275L57.0275 97H56.1975ZM52.0275 94.51H55.1275L53.5775 90.9L52.0275 94.51ZM61.2088 92.14H62.0187L59.9188 97H59.1588L57.0688 92.14H57.9288L59.5588 96.12L61.2088 92.14ZM66.8769 94.69H63.3169C63.3435 95.2567 63.4969 95.6867 63.7769 95.98C64.0569 96.2667 64.4535 96.41 64.9669 96.41C65.5335 96.41 66.0535 96.2167 66.5269 95.83L66.7969 96.42C66.5835 96.62 66.3102 96.78 65.9769 96.9C65.6435 97.0133 65.3035 97.07 64.9569 97.07C64.1969 97.07 63.5969 96.8467 63.1569 96.4C62.7235 95.9533 62.5069 95.3367 62.5069 94.55C62.5069 94.05 62.6035 93.61 62.7969 93.23C62.9902 92.8433 63.2602 92.5433 63.6069 92.33C63.9602 92.1167 64.3602 92.01 64.8069 92.01C65.4535 92.01 65.9602 92.2233 66.3269 92.65C66.6935 93.07 66.8769 93.65 66.8769 94.39V94.69ZM64.8169 92.64C64.3902 92.64 64.0469 92.7733 63.7869 93.04C63.5335 93.3067 63.3835 93.6833 63.3369 94.17H66.1669C66.1535 93.6767 66.0302 93.3 65.7969 93.04C65.5635 92.7733 65.2369 92.64 64.8169 92.64ZM70.8303 92.71L70.3003 92.76C69.8003 92.8067 69.437 92.9633 69.2103 93.23C68.9903 93.4967 68.8803 93.8267 68.8803 94.22V97H68.0703V92.13H68.8603V92.98C69.1336 92.4133 69.6703 92.0967 70.4703 92.03L70.7603 92.01L70.8303 92.71ZM73.5366 92.01C74.1566 92.01 74.6166 92.17 74.9166 92.49C75.2233 92.8033 75.3766 93.2833 75.3766 93.93V97H74.5866V96.17C74.46 96.4567 74.2666 96.68 74.0066 96.84C73.7466 96.9933 73.4466 97.07 73.1066 97.07C72.7933 97.07 72.5033 97.0067 72.2366 96.88C71.9766 96.7533 71.77 96.5767 71.6166 96.35C71.4633 96.1233 71.3866 95.8733 71.3866 95.6C71.3866 95.2333 71.48 94.95 71.6666 94.75C71.8533 94.5433 72.16 94.3967 72.5866 94.31C73.0133 94.2167 73.6066 94.17 74.3666 94.17H74.5866V93.84C74.5866 93.4333 74.5033 93.14 74.3366 92.96C74.17 92.7733 73.9 92.68 73.5266 92.68C72.9666 92.68 72.41 92.8533 71.8566 93.2L71.5866 92.61C71.84 92.43 72.1433 92.2867 72.4966 92.18C72.8566 92.0667 73.2033 92.01 73.5366 92.01ZM73.2166 96.43C73.6166 96.43 73.9433 96.2967 74.1966 96.03C74.4566 95.7567 74.5866 95.4067 74.5866 94.98V94.69H74.4066C73.82 94.69 73.3733 94.7167 73.0666 94.77C72.76 94.8167 72.54 94.9 72.4066 95.02C72.28 95.1333 72.2166 95.3033 72.2166 95.53C72.2166 95.79 72.31 96.0067 72.4966 96.18C72.69 96.3467 72.93 96.43 73.2166 96.43ZM81.2194 92.13V96.67C81.2194 97.3967 81.0327 97.9433 80.6594 98.31C80.286 98.6833 79.7327 98.87 78.9994 98.87C78.146 98.87 77.4294 98.65 76.8494 98.21L77.1194 97.61C77.446 97.8233 77.7527 97.9767 78.0394 98.07C78.326 98.1633 78.646 98.21 78.9994 98.21C79.466 98.21 79.8194 98.0833 80.0594 97.83C80.2994 97.5833 80.4194 97.22 80.4194 96.74V95.88C80.2794 96.1933 80.0627 96.4333 79.7694 96.6C79.4827 96.7667 79.1427 96.85 78.7494 96.85C78.3227 96.85 77.9427 96.75 77.6094 96.55C77.2827 96.35 77.026 96.0667 76.8394 95.7C76.6594 95.3333 76.5694 94.91 76.5694 94.43C76.5694 93.95 76.6594 93.5267 76.8394 93.16C77.026 92.7933 77.2827 92.51 77.6094 92.31C77.9427 92.11 78.3227 92.01 78.7494 92.01C79.136 92.01 79.4727 92.0933 79.7594 92.26C80.046 92.4267 80.2627 92.6633 80.4094 92.97V92.13H81.2194ZM78.9094 96.18C79.376 96.18 79.7427 96.0267 80.0094 95.72C80.276 95.4067 80.4094 94.9767 80.4094 94.43C80.4094 93.89 80.276 93.4667 80.0094 93.16C79.7494 92.8467 79.3827 92.69 78.9094 92.69C78.436 92.69 78.0627 92.8467 77.7894 93.16C77.5227 93.4667 77.3894 93.89 77.3894 94.43C77.3894 94.9767 77.5227 95.4067 77.7894 95.72C78.0627 96.0267 78.436 96.18 78.9094 96.18ZM86.7988 94.69H83.2388C83.2654 95.2567 83.4188 95.6867 83.6988 95.98C83.9788 96.2667 84.3754 96.41 84.8888 96.41C85.4554 96.41 85.9754 96.2167 86.4488 95.83L86.7188 96.42C86.5054 96.62 86.2321 96.78 85.8988 96.9C85.5654 97.0133 85.2254 97.07 84.8788 97.07C84.1188 97.07 83.5188 96.8467 83.0788 96.4C82.6454 95.9533 82.4288 95.3367 82.4288 94.55C82.4288 94.05 82.5254 93.61 82.7188 93.23C82.9121 92.8433 83.1821 92.5433 83.5288 92.33C83.8821 92.1167 84.2821 92.01 84.7288 92.01C85.3754 92.01 85.8821 92.2233 86.2488 92.65C86.6154 93.07 86.7988 93.65 86.7988 94.39V94.69ZM84.7388 92.64C84.3121 92.64 83.9688 92.7733 83.7088 93.04C83.4554 93.3067 83.3054 93.6833 83.2588 94.17H86.0888C86.0754 93.6767 85.9521 93.3 85.7188 93.04C85.4854 92.7733 85.1588 92.64 84.7388 92.64ZM92.5503 92.01C93.1703 92.01 93.6303 92.17 93.9303 92.49C94.237 92.8033 94.3903 93.2833 94.3903 93.93V97H93.6003V96.17C93.4736 96.4567 93.2803 96.68 93.0203 96.84C92.7603 96.9933 92.4603 97.07 92.1203 97.07C91.807 97.07 91.517 97.0067 91.2503 96.88C90.9903 96.7533 90.7836 96.5767 90.6303 96.35C90.477 96.1233 90.4003 95.8733 90.4003 95.6C90.4003 95.2333 90.4936 94.95 90.6803 94.75C90.867 94.5433 91.1736 94.3967 91.6003 94.31C92.027 94.2167 92.6203 94.17 93.3803 94.17H93.6003V93.84C93.6003 93.4333 93.517 93.14 93.3503 92.96C93.1836 92.7733 92.9136 92.68 92.5403 92.68C91.9803 92.68 91.4236 92.8533 90.8703 93.2L90.6003 92.61C90.8536 92.43 91.157 92.2867 91.5103 92.18C91.8703 92.0667 92.217 92.01 92.5503 92.01ZM92.2303 96.43C92.6303 96.43 92.957 96.2967 93.2103 96.03C93.4703 95.7567 93.6003 95.4067 93.6003 94.98V94.69H93.4203C92.8336 94.69 92.387 94.7167 92.0803 94.77C91.7736 94.8167 91.5536 94.9 91.4203 95.02C91.2936 95.1333 91.2303 95.3033 91.2303 95.53C91.2303 95.79 91.3236 96.0067 91.5103 96.18C91.7036 96.3467 91.9436 96.43 92.2303 96.43ZM97.933 97.07C97.453 97.07 97.0364 96.9667 96.683 96.76C96.3297 96.5533 96.0564 96.2633 95.863 95.89C95.6764 95.51 95.583 95.0667 95.583 94.56C95.583 94.0533 95.6797 93.61 95.873 93.23C96.073 92.8433 96.3497 92.5433 96.703 92.33C97.063 92.1167 97.483 92.01 97.963 92.01C98.2897 92.01 98.6097 92.07 98.923 92.19C99.2364 92.3033 99.4897 92.4567 99.683 92.65L99.413 93.25C98.953 92.8767 98.4864 92.69 98.013 92.69C97.513 92.69 97.123 92.8533 96.843 93.18C96.563 93.5067 96.423 93.9667 96.423 94.56C96.423 95.1467 96.563 95.6 96.843 95.92C97.123 96.24 97.513 96.4 98.013 96.4C98.4864 96.4 98.953 96.2133 99.413 95.84L99.683 96.44C99.4764 96.6333 99.2164 96.7867 98.903 96.9C98.5897 97.0133 98.2664 97.07 97.933 97.07ZM103.418 92.71L102.888 92.76C102.388 92.8067 102.025 92.9633 101.798 93.23C101.578 93.4967 101.468 93.8267 101.468 94.22V97H100.658V92.13H101.448V92.98C101.722 92.4133 102.258 92.0967 103.058 92.03L103.348 92.01L103.418 92.71ZM106.106 97.07C105.646 97.07 105.239 96.9667 104.886 96.76C104.539 96.5533 104.269 96.26 104.076 95.88C103.889 95.4933 103.796 95.0467 103.796 94.54C103.796 94.0333 103.889 93.59 104.076 93.21C104.269 92.8233 104.539 92.5267 104.886 92.32C105.239 92.1133 105.646 92.01 106.106 92.01C106.566 92.01 106.973 92.1133 107.326 92.32C107.679 92.5267 107.949 92.8233 108.136 93.21C108.329 93.59 108.426 94.0333 108.426 94.54C108.426 95.0467 108.329 95.4933 108.136 95.88C107.949 96.26 107.679 96.5533 107.326 96.76C106.973 96.9667 106.566 97.07 106.106 97.07ZM106.106 96.4C106.586 96.4 106.953 96.2433 107.206 95.93C107.466 95.61 107.596 95.1467 107.596 94.54C107.596 93.9467 107.466 93.49 107.206 93.17C106.946 92.8433 106.579 92.68 106.106 92.68C105.633 92.68 105.266 92.8433 105.006 93.17C104.746 93.49 104.616 93.9467 104.616 94.54C104.616 95.14 104.743 95.6 104.996 95.92C105.256 96.24 105.626 96.4 106.106 96.4ZM111.283 97.07C110.463 97.07 109.813 96.86 109.333 96.44L109.603 95.84C109.863 96.0467 110.126 96.1967 110.393 96.29C110.666 96.3767 110.973 96.42 111.313 96.42C111.673 96.42 111.946 96.36 112.133 96.24C112.326 96.1133 112.423 95.9333 112.423 95.7C112.423 95.5067 112.359 95.3533 112.233 95.24C112.106 95.1267 111.896 95.0367 111.603 94.97L110.783 94.78C110.369 94.6867 110.053 94.5267 109.833 94.3C109.613 94.0733 109.503 93.7933 109.503 93.46C109.503 93.0267 109.673 92.6767 110.013 92.41C110.353 92.1433 110.806 92.01 111.373 92.01C111.713 92.01 112.036 92.0667 112.343 92.18C112.649 92.2867 112.906 92.4433 113.113 92.65L112.843 93.24C112.396 92.86 111.906 92.67 111.373 92.67C111.033 92.67 110.766 92.7367 110.573 92.87C110.386 92.9967 110.293 93.1767 110.293 93.41C110.293 93.6033 110.349 93.76 110.463 93.88C110.583 93.9933 110.773 94.08 111.033 94.14L111.863 94.34C112.316 94.4467 112.653 94.61 112.873 94.83C113.093 95.0433 113.203 95.3233 113.203 95.67C113.203 96.0967 113.029 96.4367 112.683 96.69C112.343 96.9433 111.876 97.07 111.283 97.07ZM116.088 97.07C115.268 97.07 114.618 96.86 114.138 96.44L114.408 95.84C114.668 96.0467 114.931 96.1967 115.198 96.29C115.471 96.3767 115.778 96.42 116.118 96.42C116.478 96.42 116.751 96.36 116.938 96.24C117.131 96.1133 117.228 95.9333 117.228 95.7C117.228 95.5067 117.164 95.3533 117.038 95.24C116.911 95.1267 116.701 95.0367 116.408 94.97L115.588 94.78C115.174 94.6867 114.858 94.5267 114.638 94.3C114.418 94.0733 114.308 93.7933 114.308 93.46C114.308 93.0267 114.478 92.6767 114.818 92.41C115.158 92.1433 115.611 92.01 116.178 92.01C116.518 92.01 116.841 92.0667 117.148 92.18C117.454 92.2867 117.711 92.4433 117.918 92.65L117.648 93.24C117.201 92.86 116.711 92.67 116.178 92.67C115.838 92.67 115.571 92.7367 115.378 92.87C115.191 92.9967 115.098 93.1767 115.098 93.41C115.098 93.6033 115.154 93.76 115.268 93.88C115.388 93.9933 115.578 94.08 115.838 94.14L116.668 94.34C117.121 94.4467 117.458 94.61 117.678 94.83C117.898 95.0433 118.008 95.3233 118.008 95.67C118.008 96.0967 117.834 96.4367 117.488 96.69C117.148 96.9433 116.681 97.07 116.088 97.07ZM124.41 92.54C124.85 92.54 125.237 92.6333 125.57 92.82C125.904 93.0067 126.16 93.27 126.34 93.61C126.527 93.95 126.62 94.34 126.62 94.78C126.62 95.2333 126.517 95.6333 126.31 95.98C126.11 96.3267 125.82 96.5967 125.44 96.79C125.067 96.9767 124.63 97.07 124.13 97.07C123.697 97.07 123.267 96.9933 122.84 96.84C122.42 96.6867 122.07 96.48 121.79 96.22L122.15 95.46C122.784 95.9733 123.447 96.23 124.14 96.23C124.607 96.23 124.97 96.1067 125.23 95.86C125.49 95.6067 125.62 95.2533 125.62 94.8C125.62 94.3667 125.49 94.02 125.23 93.76C124.97 93.5 124.624 93.37 124.19 93.37C123.57 93.37 123.06 93.61 122.66 94.09H122V89.95H126.32V90.78H123.02V93C123.387 92.6933 123.85 92.54 124.41 92.54ZM130.066 97.08C129.246 97.08 128.62 96.7733 128.186 96.16C127.76 95.5467 127.546 94.6533 127.546 93.48C127.546 92.3067 127.76 91.4133 128.186 90.8C128.62 90.18 129.246 89.87 130.066 89.87C130.886 89.87 131.51 90.1767 131.936 90.79C132.37 91.4033 132.586 92.2967 132.586 93.47C132.586 94.65 132.37 95.5467 131.936 96.16C131.51 96.7733 130.886 97.08 130.066 97.08ZM130.066 96.25C130.58 96.25 130.956 96.0267 131.196 95.58C131.436 95.1333 131.556 94.43 131.556 93.47C131.556 92.5167 131.436 91.82 131.196 91.38C130.956 90.9333 130.58 90.71 130.066 90.71C129.553 90.71 129.176 90.9333 128.936 91.38C128.696 91.82 128.576 92.5167 128.576 93.47C128.576 94.4233 128.696 95.1267 128.936 95.58C129.176 96.0267 129.553 96.25 130.066 96.25ZM54.427 109.29C54.5803 109.29 54.7303 109.28 54.877 109.26L54.827 110.03C54.6603 110.057 54.487 110.07 54.307 110.07C53.6737 110.07 53.2003 109.917 52.887 109.61C52.5803 109.297 52.427 108.847 52.427 108.26V105.9H51.477V105.12H52.427V103.65H53.437V105.12H54.777V105.9H53.437V108.22C53.437 108.933 53.767 109.29 54.427 109.29ZM55.6424 110V105.12H56.6524V110H55.6424ZM55.5724 102.94H56.7324V103.99H55.5724V102.94ZM60.2043 110.07C59.7109 110.07 59.2809 109.967 58.9143 109.76C58.5543 109.553 58.2743 109.263 58.0743 108.89C57.8809 108.51 57.7843 108.067 57.7843 107.56C57.7843 107.053 57.8843 106.607 58.0843 106.22C58.2909 105.833 58.5776 105.533 58.9443 105.32C59.3176 105.107 59.7509 105 60.2443 105C60.5843 105 60.9109 105.057 61.2243 105.17C61.5443 105.283 61.8043 105.437 62.0043 105.63L61.6943 106.35C61.2543 105.99 60.7976 105.81 60.3243 105.81C59.8576 105.81 59.4909 105.963 59.2243 106.27C58.9643 106.57 58.8343 106.997 58.8343 107.55C58.8343 108.097 58.9643 108.52 59.2243 108.82C59.4843 109.113 59.8509 109.26 60.3243 109.26C60.7976 109.26 61.2543 109.08 61.6943 108.72L62.0043 109.45C61.7909 109.643 61.5243 109.797 61.2043 109.91C60.8843 110.017 60.5509 110.07 60.2043 110.07ZM67.4982 110H66.2182L63.9082 107.7V110H62.8982V102.95H63.9082V107.32L66.0482 105.13H67.2982L64.9882 107.47L67.4982 110ZM72.1661 107.73H68.7161C68.7895 108.763 69.3028 109.28 70.2561 109.28C70.8161 109.28 71.3228 109.097 71.7761 108.73L72.0861 109.44C71.8595 109.633 71.5795 109.787 71.2461 109.9C70.9128 110.013 70.5728 110.07 70.2261 110.07C69.4461 110.07 68.8295 109.847 68.3761 109.4C67.9295 108.953 67.7061 108.337 67.7061 107.55C67.7061 107.05 67.8028 106.607 67.9961 106.22C68.1961 105.833 68.4728 105.533 68.8261 105.32C69.1861 105.107 69.5928 105 70.0461 105C70.7061 105 71.2228 105.213 71.5961 105.64C71.9761 106.067 72.1661 106.657 72.1661 107.41V107.73ZM70.0661 105.74C69.6795 105.74 69.3695 105.863 69.1361 106.11C68.9095 106.35 68.7728 106.697 68.7261 107.15H71.2961C71.2761 106.697 71.1595 106.35 70.9461 106.11C70.7395 105.863 70.4461 105.74 70.0661 105.74ZM75.5403 109.29C75.6936 109.29 75.8436 109.28 75.9903 109.26L75.9403 110.03C75.7736 110.057 75.6003 110.07 75.4203 110.07C74.7869 110.07 74.3136 109.917 74.0003 109.61C73.6936 109.297 73.5403 108.847 73.5403 108.26V105.9H72.5903V105.12H73.5403V103.65H74.5503V105.12H75.8903V105.9H74.5503V108.22C74.5503 108.933 74.8803 109.29 75.5403 109.29ZM78.4757 110.07C77.629 110.07 76.9523 109.863 76.4457 109.45L76.7557 108.72C77.2557 109.107 77.839 109.3 78.5057 109.3C78.8323 109.3 79.0823 109.247 79.2557 109.14C79.429 109.027 79.5157 108.87 79.5157 108.67C79.5157 108.497 79.4557 108.36 79.3357 108.26C79.2223 108.16 79.0223 108.077 78.7357 108.01L77.9257 107.83C77.4923 107.73 77.1657 107.567 76.9457 107.34C76.7257 107.113 76.6157 106.827 76.6157 106.48C76.6157 106.04 76.7923 105.683 77.1457 105.41C77.5057 105.137 77.9757 105 78.5557 105C78.9023 105 79.2323 105.057 79.5457 105.17C79.859 105.277 80.129 105.43 80.3557 105.63L80.0457 106.34C79.5657 105.96 79.069 105.77 78.5557 105.77C78.249 105.77 78.0057 105.83 77.8257 105.95C77.6523 106.07 77.5657 106.233 77.5657 106.44C77.5657 106.607 77.619 106.743 77.7257 106.85C77.839 106.95 78.0157 107.027 78.2557 107.08L79.0857 107.27C79.559 107.377 79.9057 107.543 80.1257 107.77C80.3457 107.99 80.4557 108.28 80.4557 108.64C80.4557 109.08 80.2757 109.43 79.9157 109.69C79.5623 109.943 79.0823 110.07 78.4757 110.07ZM84.208 110V105.13H85.018V110H84.208ZM84.128 103.02H85.108V103.93H84.128V103.02ZM88.9822 105.01C90.1489 105.01 90.7322 105.653 90.7322 106.94V110H89.9222V106.99C89.9222 106.537 89.8322 106.207 89.6522 106C89.4789 105.793 89.1989 105.69 88.8122 105.69C88.3656 105.69 88.0089 105.827 87.7422 106.1C87.4756 106.373 87.3422 106.743 87.3422 107.21V110H86.5322V105.13H87.3322V105.93C87.4922 105.63 87.7156 105.403 88.0022 105.25C88.2889 105.09 88.6156 105.01 88.9822 105.01ZM99.7239 107.72V108.54H98.6939V110H97.6839V108.54H94.5139V107.77L97.8539 102.95H98.6939V107.72H99.7239ZM95.5239 107.72H97.6839V104.6L95.5239 107.72ZM109.987 105.12H110.987L109.117 110H108.207L106.917 106.51L105.627 110H104.707L102.847 105.12H103.897L105.217 108.79L106.547 105.12H107.337L108.667 108.81L109.987 105.12ZM115.965 107.73H112.515C112.588 108.763 113.102 109.28 114.055 109.28C114.615 109.28 115.122 109.097 115.575 108.73L115.885 109.44C115.658 109.633 115.378 109.787 115.045 109.9C114.712 110.013 114.372 110.07 114.025 110.07C113.245 110.07 112.628 109.847 112.175 109.4C111.728 108.953 111.505 108.337 111.505 107.55C111.505 107.05 111.602 106.607 111.795 106.22C111.995 105.833 112.272 105.533 112.625 105.32C112.985 105.107 113.392 105 113.845 105C114.505 105 115.022 105.213 115.395 105.64C115.775 106.067 115.965 106.657 115.965 107.41V107.73ZM113.865 105.74C113.478 105.74 113.168 105.863 112.935 106.11C112.708 106.35 112.572 106.697 112.525 107.15H115.095C115.075 106.697 114.958 106.35 114.745 106.11C114.538 105.863 114.245 105.74 113.865 105.74ZM121.258 107.73H117.808C117.881 108.763 118.395 109.28 119.348 109.28C119.908 109.28 120.415 109.097 120.868 108.73L121.178 109.44C120.951 109.633 120.671 109.787 120.338 109.9C120.005 110.013 119.665 110.07 119.318 110.07C118.538 110.07 117.921 109.847 117.468 109.4C117.021 108.953 116.798 108.337 116.798 107.55C116.798 107.05 116.895 106.607 117.088 106.22C117.288 105.833 117.565 105.533 117.918 105.32C118.278 105.107 118.685 105 119.138 105C119.798 105 120.315 105.213 120.688 105.64C121.068 106.067 121.258 106.657 121.258 107.41V107.73ZM119.158 105.74C118.771 105.74 118.461 105.863 118.228 106.11C118.001 106.35 117.865 106.697 117.818 107.15H120.388C120.368 106.697 120.251 106.35 120.038 106.11C119.831 105.863 119.538 105.74 119.158 105.74ZM126.971 110H125.691L123.381 107.7V110H122.371V102.95H123.381V107.32L125.521 105.13H126.771L124.461 107.47L126.971 110ZM129.179 110.07C128.332 110.07 127.655 109.863 127.149 109.45L127.459 108.72C127.959 109.107 128.542 109.3 129.209 109.3C129.535 109.3 129.785 109.247 129.959 109.14C130.132 109.027 130.219 108.87 130.219 108.67C130.219 108.497 130.159 108.36 130.039 108.26C129.925 108.16 129.725 108.077 129.439 108.01L128.629 107.83C128.195 107.73 127.869 107.567 127.649 107.34C127.429 107.113 127.319 106.827 127.319 106.48C127.319 106.04 127.495 105.683 127.849 105.41C128.209 105.137 128.679 105 129.259 105C129.605 105 129.935 105.057 130.249 105.17C130.562 105.277 130.832 105.43 131.059 105.63L130.749 106.34C130.269 105.96 129.772 105.77 129.259 105.77C128.952 105.77 128.709 105.83 128.529 105.95C128.355 106.07 128.269 106.233 128.269 106.44C128.269 106.607 128.322 106.743 128.429 106.85C128.542 106.95 128.719 107.027 128.959 107.08L129.789 107.27C130.262 107.377 130.609 107.543 130.829 107.77C131.049 107.99 131.159 108.28 131.159 108.64C131.159 109.08 130.979 109.43 130.619 109.69C130.265 109.943 129.785 110.07 129.179 110.07Z" fill="#03293D" fill-opacity="0.5"/>
</svg>
